# Blender v2.79 (sub 0) OBJ File: 'zabor1.blend'
# www.blender.org
mtllib wood_fance_m2_t1.mtl
o wood_fance_m2_t1
v -2.000000 -0.550002 9.999999
v -6.999996 -0.550002 9.999999
v -6.999996 199.448502 9.999996
v -2.000000 199.448502 9.999996
v -2.000000 -0.550002 17.999996
v -6.999996 -0.550002 17.999996
v -6.999996 199.448502 16.999996
v -2.000000 199.448502 16.999996
v -2.000000 -0.550002 100.000000
v -6.999996 -0.550002 100.000000
v -6.999996 199.448502 100.000000
v -2.000000 199.448502 100.000000
v -2.000000 -0.550002 106.999992
v -6.999996 -0.550002 106.999992
v -6.999996 199.448502 106.999992
v -2.000000 199.448502 106.999992
v -2.150097 32.783337 106.999992
v 0.759843 66.116676 106.999992
v 2.053150 99.449997 106.999992
v 0.759843 132.783325 106.999992
v -2.150097 166.118500 106.999992
v -2.150097 166.118484 100.000000
v 0.759843 132.783325 100.000000
v 2.053150 99.449997 100.000000
v 0.759843 66.116661 100.000000
v -2.150097 32.783329 100.000000
v 2.849899 166.118484 106.999992
v 5.759840 132.783325 106.999992
v 7.053146 99.449997 106.999992
v 5.759840 66.116661 106.999992
v 2.849899 32.783329 106.999992
v 2.849899 32.783337 100.000000
v 5.759840 66.116676 100.000000
v 7.053146 99.449997 100.000000
v 5.759840 132.783325 100.000000
v 2.849899 166.118500 100.000000
v 0.259904 2.306860 0.000000
v -2.000001 2.306860 0.000000
v -2.000001 18.079483 0.000000
v 0.259904 18.079483 0.000000
v 0.872353 2.306860 150.000000
v -1.387553 2.306860 150.000000
v 1.886878 18.079483 150.000000
v 4.146783 18.079483 150.000000
v -7.000000 -5.573124 -19.999998
v -16.999996 -5.573124 -19.999998
v -16.999996 4.426867 -19.999998
v -7.000000 4.426867 -19.999998
v -7.000000 -5.573124 130.000000
v -16.999996 -5.573124 130.000000
v -16.999996 4.426867 130.000000
v -7.000000 4.426867 130.000000
v -0.369342 18.880903 0.056452
v -2.366389 18.880903 0.165123
v -2.366389 32.130287 0.165123
v -0.369342 32.130287 0.056452
v 7.780781 18.880903 149.834869
v 5.783734 18.880903 149.943542
v 5.783734 32.130287 149.943542
v 7.780781 32.130287 149.834869
v -0.805165 33.242630 -5.848841
v -2.802403 33.242630 -5.743758
v -2.802403 45.242619 -5.743758
v -0.805165 45.242619 -5.848841
v 7.076119 32.375000 143.943970
v 5.078880 32.375000 144.049057
v 5.078880 45.242619 144.049057
v 7.076119 45.242619 143.943970
v 0.618536 47.648544 0.104940
v -2.024084 47.648544 0.299358
v -2.024084 62.625801 0.299358
v 0.618536 62.625801 0.104940
v 11.624331 47.648544 149.700638
v 8.981711 47.648544 149.895065
v 8.981711 62.625801 149.895065
v 11.624331 62.625801 149.700638
v 0.261346 63.950546 2.717042
v -1.987577 63.950546 2.939558
v -1.987577 75.950531 2.939558
v 0.261346 75.950531 2.717042
v 12.566781 63.950546 151.988174
v 10.317859 63.950546 152.210693
v 10.317859 75.117615 152.210693
v 12.566781 75.117615 151.988174
v 1.943067 76.533997 0.000000
v -0.706694 76.533997 0.000000
v 14.262369 76.533997 150.000000
v 11.612606 76.533997 150.000000
v 0.649761 91.511253 0.000000
v -2.000001 91.511253 0.000000
v -2.000001 104.261162 0.000000
v 0.000000 104.261162 0.000000
v 12.969062 91.511253 150.000000
v 10.319300 91.511253 150.000000
v 10.812073 104.261162 150.000000
v 12.812074 104.261162 150.000000
v 0.259904 106.868408 0.000000
v -2.000001 106.868408 0.000000
v -2.000001 122.641029 0.000000
v 0.259904 122.641029 0.000000
v 12.086432 106.868408 150.000000
v 9.826527 106.868408 150.000000
v 9.826527 122.641029 150.000000
v 12.086432 122.641029 150.000000
v 0.259904 138.805527 0.000000
v -2.000001 138.805527 0.000000
v -2.000001 150.805527 0.000000
v 0.259904 150.805527 0.000000
v 9.129801 138.805527 150.000000
v 6.869895 138.805527 150.000000
v 6.869895 149.972595 150.000000
v 9.129801 149.972595 150.000000
v 0.000000 124.102440 -2.878594
v -2.000001 124.102440 -2.878594
v -2.000001 137.351837 -2.878594
v 0.000000 137.351837 -2.878594
v 10.348212 124.102440 147.121399
v 8.348211 124.102440 147.121399
v 8.348211 137.351837 147.121399
v 10.348212 137.351837 147.121399
v 0.259904 170.285278 0.000000
v -2.000001 170.285278 0.000000
v -2.000001 184.630630 0.000000
v 3.709308 170.285278 150.000000
v 1.449403 170.285278 150.000000
v 1.449403 183.634918 150.000000
v 3.709308 183.634918 150.000000
v 6.173168 154.653473 0.000000
v 3.913262 154.653473 0.000000
v 3.913262 170.426102 0.000000
v 6.173168 170.426102 0.000000
v 6.173168 151.774872 150.000000
v 3.913262 151.774872 150.000000
v 3.913262 167.547501 150.000000
v 6.173168 167.547501 150.000000
v 0.259904 184.630630 0.000000
v -2.000001 198.984879 0.000000
v 0.000000 198.984879 0.000000
v -0.859325 198.984879 150.000000
v 1.140676 198.984879 150.000000
vt 0.765659 0.901937
vt 0.747599 0.901937
vt 0.747599 0.873040
vt 0.765659 0.873040
vt 0.010002 0.857897
vt 0.732438 0.857138
vt 0.732591 0.882423
vt 0.010177 0.886793
vt 0.766184 0.857791
vt 0.748123 0.857791
vt 0.748123 0.832506
vt 0.766184 0.832506
vt 0.732419 0.839078
vt 0.009983 0.839835
vt 0.010097 0.810938
vt 0.732519 0.813794
vt 0.010169 0.792878
vt 0.732590 0.795734
vt 0.766735 0.946325
vt 0.748674 0.946325
vt 0.748674 0.921040
vt 0.766735 0.921040
vt 0.612010 0.964267
vt 0.732415 0.964267
vt 0.732415 0.989552
vt 0.612010 0.989552
vt 0.765003 0.812033
vt 0.746942 0.812033
vt 0.746943 0.786749
vt 0.765003 0.786749
vt 0.130388 0.946207
vt 0.009983 0.946207
vt 0.009983 0.920922
vt 0.130388 0.920922
vt 0.612010 0.920922
vt 0.612010 0.902862
vt 0.732415 0.902862
vt 0.732415 0.920922
vt 0.130388 0.964267
vt 0.009983 0.964267
vt 0.732415 0.946206
vt 0.612010 0.946206
vt 0.491604 0.964267
vt 0.491604 0.946206
vt 0.371199 0.964267
vt 0.371199 0.946207
vt 0.250794 0.964267
vt 0.250794 0.946207
vt 0.009983 0.902862
vt 0.130388 0.902862
vt 0.250794 0.902862
vt 0.250794 0.920922
vt 0.371199 0.902862
vt 0.371199 0.920922
vt 0.491604 0.902862
vt 0.491604 0.920922
vt 0.130388 0.989552
vt 0.009983 0.989552
vt 0.250794 0.989552
vt 0.371199 0.989552
vt 0.491604 0.989552
vt 0.685134 0.751811
vt 0.674132 0.751784
vt 0.674133 0.121492
vt 0.685134 0.121518
vt 0.607857 0.751784
vt 0.607857 0.121492
vt 0.762411 0.751837
vt 0.751410 0.751811
vt 0.751410 0.121518
vt 0.762411 0.121544
vt 0.674133 0.111996
vt 0.607857 0.111996
vt 0.607857 0.761280
vt 0.674132 0.761280
vt 0.882364 0.984064
vt 0.831821 0.984064
vt 0.831820 0.225918
vt 0.882363 0.225918
vt 0.781277 0.984064
vt 0.781277 0.225918
vt 0.983450 0.984064
vt 0.932907 0.984064
vt 0.932907 0.225918
vt 0.983450 0.225918
vt 0.782194 0.158062
vt 0.833940 0.158062
vt 0.833940 0.209808
vt 0.782195 0.209808
vt 0.850406 0.157005
vt 0.902151 0.157005
vt 0.902151 0.208750
vt 0.850406 0.208750
vt 0.247637 0.759183
vt 0.236744 0.759138
vt 0.236744 0.135076
vt 0.247637 0.135121
vt 0.181621 0.759138
vt 0.181622 0.135076
vt 0.313652 0.759228
vt 0.302760 0.759183
vt 0.302760 0.135121
vt 0.313652 0.135166
vt 0.236744 0.126755
vt 0.181621 0.126755
vt 0.181621 0.767459
vt 0.236744 0.767459
vt 0.392839 0.760005
vt 0.381959 0.760023
vt 0.378353 0.136641
vt 0.389234 0.136623
vt 0.328482 0.760023
vt 0.328483 0.136641
vt 0.457192 0.759305
vt 0.446312 0.759386
vt 0.439101 0.136046
vt 0.449981 0.135965
vt 0.378353 0.128329
vt 0.328483 0.128329
vt 0.328482 0.768335
vt 0.381959 0.768335
vt 0.090455 0.762182
vt 0.079212 0.762182
vt 0.079212 0.125740
vt 0.090455 0.125740
vt 0.015664 0.762182
vt 0.015665 0.125740
vt 0.165245 0.762182
vt 0.154003 0.762182
vt 0.154002 0.125740
vt 0.165245 0.125740
vt 0.079212 0.114497
vt 0.015665 0.114497
vt 0.015664 0.773425
vt 0.079212 0.773425
vt 0.528445 0.757015
vt 0.517476 0.756985
vt 0.517693 0.128523
vt 0.528663 0.128553
vt 0.470689 0.756969
vt 0.467417 0.128506
vt 0.586202 0.757122
vt 0.575232 0.757031
vt 0.578939 0.128570
vt 0.589908 0.128661
vt 0.517696 0.119055
vt 0.467420 0.119037
vt 0.470685 0.766437
vt 0.517473 0.766453
vt 0.090455 0.762182
vt 0.079212 0.762182
vt 0.079212 0.125740
vt 0.090455 0.125740
vt 0.015664 0.762182
vt 0.015665 0.125740
vt 0.154003 0.762182
vt 0.154002 0.125740
vt 0.079212 0.114497
vt 0.015665 0.114497
vt 0.015664 0.773425
vt 0.079212 0.773425
vt 0.381959 0.760023
vt 0.328482 0.760023
vt 0.328483 0.136641
vt 0.378353 0.136641
vt 0.457192 0.759305
vt 0.446312 0.759386
vt 0.439101 0.136046
vt 0.449981 0.135965
vt 0.392839 0.760005
vt 0.389234 0.136623
vt 0.378353 0.128329
vt 0.328483 0.128329
vt 0.328482 0.768335
vt 0.381959 0.768335
vt 0.685134 0.751811
vt 0.674132 0.751784
vt 0.674133 0.121492
vt 0.685134 0.121518
vt 0.607857 0.751784
vt 0.607857 0.121492
vt 0.762411 0.751837
vt 0.751410 0.751811
vt 0.751410 0.121518
vt 0.762411 0.121544
vt 0.674133 0.111996
vt 0.607857 0.111996
vt 0.607857 0.761280
vt 0.674132 0.761280
vt 0.528445 0.757015
vt 0.517476 0.756985
vt 0.517693 0.128523
vt 0.528663 0.128553
vt 0.470689 0.756969
vt 0.467417 0.128506
vt 0.586202 0.757122
vt 0.575232 0.757031
vt 0.578939 0.128570
vt 0.589908 0.128661
vt 0.517696 0.119055
vt 0.467420 0.119037
vt 0.470685 0.766437
vt 0.517473 0.766453
vt 0.247637 0.759183
vt 0.236744 0.759138
vt 0.236744 0.135076
vt 0.247637 0.135121
vt 0.181621 0.759138
vt 0.181622 0.135076
vt 0.313652 0.759228
vt 0.302760 0.759183
vt 0.302760 0.135121
vt 0.313652 0.135166
vt 0.236744 0.126755
vt 0.181621 0.126755
vt 0.181621 0.767459
vt 0.236744 0.767459
vt 0.528445 0.757015
vt 0.517476 0.756985
vt 0.517693 0.128523
vt 0.528663 0.128553
vt 0.470689 0.756969
vt 0.467417 0.128506
vt 0.575232 0.757031
vt 0.578939 0.128570
vt 0.517696 0.119055
vt 0.467420 0.119037
vt 0.470685 0.766437
vt 0.517473 0.766453
vt 0.685134 0.751811
vt 0.674132 0.751784
vt 0.674133 0.121492
vt 0.685134 0.121518
vt 0.607857 0.751784
vt 0.607857 0.121492
vt 0.762411 0.751837
vt 0.751410 0.751811
vt 0.751410 0.121518
vt 0.762411 0.121544
vt 0.674133 0.111996
vt 0.607857 0.111996
vt 0.607857 0.761280
vt 0.674132 0.761280
vt 0.381959 0.760023
vt 0.328482 0.760023
vt 0.328483 0.136641
vt 0.378353 0.136641
vt 0.457192 0.759305
vt 0.446312 0.759386
vt 0.439101 0.136046
vt 0.449981 0.135965
vt 0.392839 0.760005
vt 0.389234 0.136623
vt 0.378353 0.128329
vt 0.328483 0.128329
vt 0.328482 0.768335
vt 0.381959 0.768335
vn 0.0000 -1.0000 0.0000
vn -1.0000 0.0000 0.0000
vn 0.0000 1.0000 0.0000
vn 1.0000 0.0000 0.0000
vn 0.0000 -0.0000 -1.0000
vn 0.0000 0.0050 1.0000
vn -0.9933 -0.1155 0.0000
vn -0.9896 -0.1440 0.0000
vn 0.9933 -0.1155 -0.0000
vn 0.9896 -0.1440 -0.0000
vn -0.0000 0.0000 1.0000
vn 0.9896 0.1440 0.0000
vn 0.9933 0.1155 0.0000
vn 0.9980 0.0629 0.0000
vn 0.9980 -0.0629 -0.0000
vn -0.9896 0.1440 -0.0000
vn -0.9933 0.1155 -0.0000
vn -0.9980 0.0629 -0.0000
vn -0.9980 -0.0629 0.0000
vn -0.9945 0.1032 0.0149
vn 0.9945 -0.1032 -0.0149
vn -0.9985 0.0000 0.0543
vn 0.9985 0.0000 -0.0543
vn -0.0543 0.0000 -0.9985
vn 0.0543 0.0000 0.9985
vn -0.0003 -1.0000 -0.0058
vn -0.9986 0.0000 0.0525
vn 0.9986 0.0000 -0.0525
vn -0.0525 0.0000 -0.9986
vn 0.0525 0.0000 0.9986
vn -0.9973 0.0000 0.0734
vn 0.9973 0.0000 -0.0734
vn -0.0734 0.0000 -0.9973
vn 0.0734 0.0000 0.9973
vn -0.9966 0.0000 0.0822
vn 0.0005 1.0000 0.0055
vn 0.9966 0.0000 -0.0822
vn -0.0985 0.0000 -0.9951
vn 0.0985 0.0000 0.9951
vn -0.9930 -0.0857 0.0816
vn 0.9930 0.0857 -0.0816
vn -0.9963 0.0193 0.0835
vn 0.9960 0.0315 -0.0834
vn -0.9969 0.0000 0.0786
vn 0.9969 0.0000 -0.0786
vn -0.9983 0.0000 0.0590
vn 0.0000 1.0000 0.0056
vn 0.9983 0.0000 -0.0590
vn -0.9976 0.0000 0.0688
vn 0.9976 0.0000 -0.0688
vn -0.9997 0.0000 0.0230
vn 0.9997 0.0000 -0.0230
vn 0.0000 -0.9998 -0.0192
vn 0.0000 0.9998 0.0192
vn -0.9969 -0.0775 0.0150
vn 0.9954 0.0948 -0.0149
usemtl wood_fance_t1_m
s 1
f 5/1/1 6/2/1 2/3/1 1/4/1
f 6/5/2 7/6/2 3/7/2 2/8/2
f 7/9/3 8/10/3 4/11/3 3/12/3
f 8/13/4 5/14/4 1/15/4 4/16/4
f 1/15/5 2/17/5 3/18/5 4/16/5
f 8/13/6 7/6/6 6/5/6 5/14/6
f 13/19/1 14/20/1 10/21/1 9/22/1
f 21/23/7 15/24/8 11/25/8 22/26/7
f 15/27/3 16/28/3 12/29/3 11/30/3
f 31/31/9 13/32/10 9/33/10 32/34/9
f 36/35/5 22/36/5 11/37/5 12/38/5
f 31/31/11 17/39/11 14/40/11 13/32/11
f 16/41/11 15/24/11 21/23/11 27/42/11
f 27/42/11 21/23/11 20/43/11 28/44/11
f 28/44/11 20/43/11 19/45/11 29/46/11
f 29/46/11 19/45/11 18/47/11 30/48/11
f 30/48/11 18/47/11 17/39/11 31/31/11
f 9/33/5 10/49/5 26/50/5 32/34/5
f 32/34/5 26/50/5 25/51/5 33/52/5
f 33/52/5 25/51/5 24/53/5 34/54/5
f 34/54/5 24/53/5 23/55/5 35/56/5
f 35/56/5 23/55/5 22/36/5 36/35/5
f 16/41/12 27/42/13 36/35/13 12/38/12
f 27/42/13 28/44/14 35/56/14 36/35/13
f 28/44/14 29/46/4 34/54/4 35/56/14
f 29/46/4 30/48/15 33/52/15 34/54/4
f 30/48/15 31/31/9 32/34/9 33/52/15
f 14/40/16 17/39/17 26/57/17 10/58/16
f 17/39/17 18/47/18 25/59/18 26/57/17
f 18/47/18 19/45/2 24/60/2 25/59/18
f 19/45/2 20/43/19 23/61/19 24/60/2
f 20/43/19 21/23/7 22/26/7 23/61/19
f 41/62/1 42/63/1 38/64/1 37/65/1
f 42/63/20 43/66/20 39/67/20 38/64/20
f 43/68/3 44/69/3 40/70/3 39/71/3
f 44/69/21 41/62/21 37/65/21 40/70/21
f 37/72/5 38/64/5 39/67/5 40/73/5
f 44/74/11 43/66/11 42/63/11 41/75/11
f 49/76/1 50/77/1 46/78/1 45/79/1
f 50/77/2 51/80/2 47/81/2 46/78/2
f 51/82/3 52/83/3 48/84/3 47/85/3
f 52/83/4 49/76/4 45/79/4 48/84/4
f 45/86/5 46/87/5 47/88/5 48/89/5
f 52/90/11 51/91/11 50/92/11 49/93/11
f 57/94/1 58/95/1 54/96/1 53/97/1
f 58/95/22 59/98/22 55/99/22 54/96/22
f 59/100/3 60/101/3 56/102/3 55/103/3
f 60/101/23 57/94/23 53/97/23 56/102/23
f 53/104/24 54/96/24 55/99/24 56/105/24
f 60/106/25 59/98/25 58/95/25 57/107/25
f 65/108/26 66/109/26 62/110/26 61/111/26
f 66/109/27 67/112/27 63/113/27 62/110/27
f 67/114/3 68/115/3 64/116/3 63/117/3
f 68/115/28 65/108/28 61/111/28 64/116/28
f 61/118/29 62/110/29 63/113/29 64/119/29
f 68/120/30 67/112/30 66/109/30 65/121/30
f 73/122/1 74/123/1 70/124/1 69/125/1
f 74/123/31 75/126/31 71/127/31 70/124/31
f 75/128/3 76/129/3 72/130/3 71/131/3
f 76/129/32 73/122/32 69/125/32 72/130/32
f 69/132/33 70/124/33 71/127/33 72/133/33
f 76/134/34 75/126/34 74/123/34 73/135/34
f 81/136/1 82/137/1 78/138/1 77/139/1
f 82/137/35 83/140/35 79/141/35 78/138/35
f 83/142/36 84/143/36 80/144/36 79/145/36
f 84/143/37 81/136/37 77/139/37 80/144/37
f 77/146/38 78/138/38 79/141/38 80/147/38
f 84/148/39 83/140/39 82/137/39 81/149/39
f 87/150/1 88/151/1 86/152/1 85/153/1
f 88/151/40 94/154/40 90/155/40 86/152/40
f 93/156/41 87/150/41 85/153/41 89/157/41
f 85/158/5 86/152/5 90/155/5 89/159/5
f 93/160/11 94/154/11 88/151/11 87/161/11
f 94/162/42 95/163/42 91/164/42 90/165/42
f 95/166/3 96/167/3 92/168/3 91/169/3
f 96/167/43 93/170/43 89/171/43 92/168/43
f 89/172/5 90/165/5 91/164/5 92/173/5
f 96/174/11 95/163/11 94/162/11 93/175/11
f 101/176/1 102/177/1 98/178/1 97/179/1
f 102/177/44 103/180/44 99/181/44 98/178/44
f 103/182/3 104/183/3 100/184/3 99/185/3
f 104/183/45 101/176/45 97/179/45 100/184/45
f 97/186/5 98/178/5 99/181/5 100/187/5
f 104/188/11 103/180/11 102/177/11 101/189/11
f 109/190/1 110/191/1 106/192/1 105/193/1
f 110/191/46 111/194/46 107/195/46 106/192/46
f 111/196/47 112/197/47 108/198/47 107/199/47
f 112/197/48 109/190/48 105/193/48 108/198/48
f 105/200/5 106/192/5 107/195/5 108/201/5
f 112/202/11 111/194/11 110/191/11 109/203/11
f 117/204/1 118/205/1 114/206/1 113/207/1
f 118/205/49 119/208/49 115/209/49 114/206/49
f 119/210/3 120/211/3 116/212/3 115/213/3
f 120/211/50 117/204/50 113/207/50 116/212/50
f 113/214/5 114/206/5 115/209/5 116/215/5
f 120/216/11 119/208/11 118/205/11 117/217/11
f 124/218/1 125/219/1 122/220/1 121/221/1
f 125/219/51 126/222/51 123/223/51 122/220/51
f 127/224/52 124/218/52 121/221/52 136/225/52
f 121/226/5 122/220/5 123/223/5 136/227/5
f 127/228/11 126/222/11 125/219/11 124/229/11
f 132/230/53 133/231/53 129/232/53 128/233/53
f 133/231/2 134/234/2 130/235/2 129/232/2
f 134/236/54 135/237/54 131/238/54 130/239/54
f 135/237/4 132/230/4 128/233/4 131/238/4
f 128/240/5 129/232/5 130/235/5 131/241/5
f 135/242/11 134/234/11 133/231/11 132/243/11
f 126/244/55 139/245/55 137/246/55 123/247/55
f 139/248/3 140/249/3 138/250/3 137/251/3
f 140/249/56 127/252/56 136/253/56 138/250/56
f 136/254/5 123/247/5 137/246/5 138/255/5
f 140/256/11 139/245/11 126/244/11 127/257/11
