# Blender v2.79 (sub 0) OBJ File: 'zabor1.blend'
# www.blender.org
mtllib wood_fance_m1_t1.mtl
o wood_fance_m1_t1
v -2.000001 192.338776 150.000000
v 0.259904 163.151428 0.000000
v -2.000001 163.151428 0.000000
v -2.000001 178.924057 0.000000
v 0.259904 178.924057 0.000000
v 0.259904 163.151428 150.000000
v -2.000001 163.151428 150.000000
v -2.000001 178.924057 150.000000
v 0.259904 178.924057 150.000000
v 0.000000 192.338760 0.000000
v -2.000001 192.338760 0.000000
v -2.000001 204.713226 0.000000
v 0.259904 204.713226 0.000000
v 0.000000 192.338760 150.000000
v -2.000001 203.880310 150.000000
v 0.259904 203.880310 150.000000
v -2.000000 1.237965 9.999999
v -6.999996 1.237965 9.999999
v -6.999996 201.237961 9.999999
v -2.000000 201.237961 9.999999
v -2.000000 1.237965 17.999996
v -6.999996 1.237965 17.999996
v -6.999996 201.237961 16.999996
v -2.000000 201.237961 16.999996
v -6.994153 1.237988 107.004143
v -1.994163 1.237988 106.995796
v -1.994163 201.237961 106.995796
v -6.994153 201.237961 107.004143
v -7.005832 1.237988 100.004150
v -2.005843 1.237988 99.995811
v -2.005843 201.237961 99.995811
v -7.005832 201.237961 100.004150
v -2.005843 41.237976 98.329956
v -2.005843 81.237984 97.913498
v -2.005843 121.237968 97.913498
v -2.005843 161.237976 98.329956
v -1.994163 161.237976 105.329941
v -1.994163 121.237968 104.913483
v -1.994163 81.237984 104.913483
v -1.994163 41.237976 105.329941
v -7.005832 161.237976 98.338295
v -7.005832 121.237968 97.921837
v -7.005832 81.237984 97.921837
v -7.005832 41.237976 98.338295
v -6.994153 41.237976 105.338287
v -6.994153 81.237984 104.921829
v -6.994153 121.237968 104.921829
v -6.994153 161.237976 105.338287
v -7.561327 41.237976 17.799995
v -7.748437 81.237968 18.432920
v -7.748437 121.237984 18.232922
v -7.561327 161.237976 17.199997
v -7.561327 161.237976 9.999999
v -7.748437 121.237984 10.832925
v -7.748437 81.237968 10.832925
v -7.561327 41.237976 9.999999
v -2.561330 161.237976 17.199997
v -2.748441 121.237984 18.232922
v -2.748441 81.237968 18.432922
v -2.561330 41.237976 17.799997
v -2.561330 41.237976 9.999999
v -2.748441 81.237968 10.832925
v -2.748441 121.237984 10.832925
v -2.561330 161.237976 9.999999
v -7.000000 -0.683832 -20.047247
v -16.999996 -0.683832 -20.047247
v -16.999996 9.315610 -19.944906
v -7.000000 9.315610 -19.944906
v -7.000000 -2.218986 129.944901
v -16.999996 -2.218986 129.944901
v -16.999996 7.780480 130.047256
v -7.000000 7.780480 130.047256
v 0.649761 5.464458 -3.331703
v -2.000001 5.464458 -3.331703
v -2.000001 20.441700 -3.331703
v 0.649761 20.441700 -3.331703
v 0.649761 3.382134 146.668289
v -2.000001 3.382134 146.668289
v -2.000001 18.359398 146.668289
v 0.649761 18.359398 146.668289
v -2.000001 51.265099 0.000000
v 0.000000 51.265099 0.000000
v -2.000001 51.265099 150.000000
v 0.000000 51.265099 150.000000
v 0.259904 21.802855 0.000000
v -2.000001 21.802855 0.000000
v -2.000001 37.575470 0.000000
v 0.259904 37.575470 0.000000
v 0.259904 21.802855 150.000000
v -2.000001 21.802855 150.000000
v -2.000001 37.575470 150.000000
v 0.259904 37.575470 150.000000
v 6.248085 53.175224 -2.837891
v 3.991367 53.175224 -2.957872
v 3.991367 65.175224 -2.957872
v 6.248085 65.175224 -2.837891
v -1.715593 53.175224 146.950562
v -3.972312 53.175224 146.830582
v -3.972312 64.342285 146.830582
v -1.715593 64.342285 146.950562
v 0.259904 79.809784 0.000000
v -2.000001 79.809784 0.000000
v -2.000001 95.582413 0.000000
v 0.259904 95.582413 0.000000
v 0.259904 79.809784 150.000000
v -2.000001 79.809784 150.000000
v -2.000001 95.582413 150.000000
v 0.259904 95.582413 150.000000
v 0.259904 95.582413 0.000000
v -2.000001 95.582413 0.000000
v -2.000001 108.656784 0.000000
v 0.000000 108.656784 0.000000
v 0.259904 95.582413 150.000000
v -2.000001 95.582413 150.000000
v -2.000001 108.656784 150.000000
v 0.000000 108.656784 150.000000
v 0.649761 109.500313 0.000000
v -2.000001 109.500313 0.000000
v -2.000001 124.477562 0.000000
v 0.649761 124.477562 0.000000
v 0.649761 109.500313 150.000000
v -2.000001 109.500313 150.000000
v -2.000001 124.477562 150.000000
v 0.649761 124.477562 150.000000
v 0.000000 66.334747 2.812719
v -2.000001 66.334747 2.812719
v -2.000001 78.334740 2.812719
v 0.000000 78.334740 2.812719
v 0.000000 65.467117 152.812714
v -2.000001 65.467117 152.812714
v -2.000001 78.334740 152.812714
v 0.000000 78.334740 152.812714
v -2.427398 139.866028 0.000006
v 0.218001 140.018036 0.000006
v 1.077157 125.065437 0.000006
v -1.568241 124.913429 0.000006
v -0.370051 139.866028 150.000000
v 2.275347 140.018036 150.000000
v 3.134504 125.065437 150.000000
v 0.489105 124.913429 150.000000
v 0.000000 143.817001 -5.415386
v -2.000001 143.817001 -5.415386
v -2.000001 158.815460 -5.377209
v 0.000000 158.815460 -5.377209
v 0.000000 142.472137 144.581100
v -2.000001 142.472137 144.581100
v -2.000001 158.338211 144.622040
v 0.000000 158.338211 144.622040
vt 0.236744 0.759138
vt 0.181621 0.759138
vt 0.181622 0.135076
vt 0.236744 0.135076
vt 0.313652 0.759228
vt 0.302760 0.759183
vt 0.302760 0.135121
vt 0.313652 0.135166
vt 0.247637 0.759183
vt 0.247637 0.135121
vt 0.236744 0.126755
vt 0.181621 0.126755
vt 0.181621 0.767459
vt 0.236744 0.767459
vt 0.685134 0.751811
vt 0.674132 0.751784
vt 0.674133 0.121492
vt 0.685134 0.121518
vt 0.607857 0.751784
vt 0.607857 0.121492
vt 0.751410 0.751811
vt 0.751410 0.121518
vt 0.674133 0.111996
vt 0.607857 0.111996
vt 0.607857 0.761280
vt 0.674132 0.761280
vt 0.517476 0.756985
vt 0.470689 0.756969
vt 0.467417 0.128506
vt 0.517693 0.128523
vt 0.586202 0.757122
vt 0.575232 0.757031
vt 0.578939 0.128570
vt 0.589908 0.128661
vt 0.528445 0.757015
vt 0.528663 0.128553
vt 0.517696 0.119055
vt 0.467420 0.119037
vt 0.470685 0.766437
vt 0.517473 0.766453
vt 0.765659 0.901937
vt 0.747599 0.901937
vt 0.747599 0.873040
vt 0.765659 0.873040
vt 0.587951 0.857290
vt 0.732438 0.857138
vt 0.732591 0.882423
vt 0.588108 0.883297
vt 0.766184 0.857791
vt 0.748123 0.857791
vt 0.748123 0.832506
vt 0.766184 0.832506
vt 0.154470 0.839683
vt 0.009983 0.839835
vt 0.010097 0.810938
vt 0.154581 0.811510
vt 0.588034 0.813223
vt 0.588106 0.795163
vt 0.732590 0.795734
vt 0.732519 0.813794
vt 0.154489 0.857745
vt 0.010002 0.857897
vt 0.766735 0.946325
vt 0.748674 0.946325
vt 0.748674 0.921040
vt 0.766735 0.921040
vt 0.587928 0.964267
vt 0.732415 0.964267
vt 0.732415 0.989552
vt 0.587928 0.989552
vt 0.765003 0.812033
vt 0.746942 0.812033
vt 0.746943 0.786749
vt 0.765003 0.786749
vt 0.154469 0.946207
vt 0.009983 0.946207
vt 0.009983 0.920922
vt 0.154469 0.920922
vt 0.587929 0.920922
vt 0.587929 0.902862
vt 0.732415 0.902862
vt 0.732415 0.920922
vt 0.154469 0.964267
vt 0.009983 0.964267
vt 0.732415 0.946206
vt 0.587929 0.946206
vt 0.443442 0.964267
vt 0.443442 0.946207
vt 0.298956 0.964267
vt 0.298956 0.946207
vt 0.009983 0.902862
vt 0.154470 0.902862
vt 0.298956 0.902862
vt 0.298956 0.920922
vt 0.443442 0.902862
vt 0.443442 0.920922
vt 0.154469 0.989552
vt 0.009983 0.989552
vt 0.298956 0.989552
vt 0.443442 0.989552
vt 0.732419 0.839078
vt 0.587932 0.839229
vt 0.443463 0.857442
vt 0.443444 0.839381
vt 0.298976 0.857593
vt 0.298957 0.839532
vt 0.010169 0.792878
vt 0.154653 0.793449
vt 0.299137 0.794020
vt 0.299066 0.812081
vt 0.443622 0.794592
vt 0.443550 0.812652
vt 0.154660 0.885919
vt 0.010177 0.886793
vt 0.299142 0.885045
vt 0.443625 0.884171
vt 0.882364 0.984064
vt 0.831821 0.984064
vt 0.831820 0.225918
vt 0.882363 0.225918
vt 0.781277 0.984064
vt 0.781277 0.225918
vt 0.983450 0.984064
vt 0.932907 0.984064
vt 0.932907 0.225918
vt 0.983450 0.225918
vt 0.782194 0.158062
vt 0.833940 0.158062
vt 0.833940 0.209808
vt 0.782195 0.209808
vt 0.850406 0.157005
vt 0.902151 0.157005
vt 0.902151 0.208750
vt 0.850406 0.208750
vt 0.090455 0.762182
vt 0.079212 0.762182
vt 0.079212 0.125740
vt 0.090455 0.125740
vt 0.015664 0.762182
vt 0.015665 0.125740
vt 0.165245 0.762182
vt 0.154003 0.762182
vt 0.154002 0.125740
vt 0.165245 0.125740
vt 0.079212 0.114497
vt 0.015665 0.114497
vt 0.015664 0.773425
vt 0.079212 0.773425
vt 0.236744 0.759138
vt 0.181621 0.759138
vt 0.181622 0.135076
vt 0.236744 0.135076
vt 0.313652 0.759228
vt 0.302760 0.759183
vt 0.302760 0.135121
vt 0.313652 0.135166
vt 0.247637 0.759183
vt 0.247637 0.135121
vt 0.236744 0.126755
vt 0.181621 0.126755
vt 0.181621 0.767459
vt 0.236744 0.767459
vt 0.685134 0.751811
vt 0.674132 0.751784
vt 0.674133 0.121492
vt 0.685134 0.121518
vt 0.607857 0.751784
vt 0.607857 0.121492
vt 0.751410 0.751811
vt 0.751410 0.121518
vt 0.674133 0.111996
vt 0.607857 0.111996
vt 0.607857 0.761280
vt 0.674132 0.761280
vt 0.528445 0.757015
vt 0.517476 0.756985
vt 0.517693 0.128523
vt 0.528663 0.128553
vt 0.470689 0.756969
vt 0.467417 0.128506
vt 0.586202 0.757122
vt 0.575232 0.757031
vt 0.578939 0.128570
vt 0.589908 0.128661
vt 0.517696 0.119055
vt 0.467420 0.119037
vt 0.470685 0.766437
vt 0.517473 0.766453
vt 0.685134 0.751811
vt 0.674132 0.751784
vt 0.674133 0.121492
vt 0.685134 0.121518
vt 0.607857 0.751784
vt 0.607857 0.121492
vt 0.751410 0.751811
vt 0.751410 0.121518
vt 0.674133 0.111996
vt 0.607857 0.111996
vt 0.607857 0.761280
vt 0.674132 0.761280
vt 0.381959 0.760023
vt 0.328482 0.760023
vt 0.328483 0.136641
vt 0.378353 0.136641
vt 0.446312 0.759386
vt 0.392839 0.760005
vt 0.389234 0.136623
vt 0.439101 0.136046
vt 0.378353 0.128329
vt 0.328483 0.128329
vt 0.328482 0.768335
vt 0.381959 0.768335
vt 0.090455 0.762182
vt 0.079212 0.762182
vt 0.079212 0.125740
vt 0.090455 0.125740
vt 0.015664 0.762182
vt 0.015665 0.125740
vt 0.165245 0.762182
vt 0.154003 0.762182
vt 0.154002 0.125740
vt 0.165245 0.125740
vt 0.079212 0.114497
vt 0.015665 0.114497
vt 0.015664 0.773425
vt 0.079212 0.773425
vt 0.392839 0.760005
vt 0.381959 0.760023
vt 0.378353 0.136641
vt 0.389234 0.136623
vt 0.328482 0.760023
vt 0.328483 0.136641
vt 0.457192 0.759305
vt 0.446312 0.759386
vt 0.439101 0.136046
vt 0.449981 0.135965
vt 0.378353 0.128329
vt 0.328483 0.128329
vt 0.328482 0.768335
vt 0.381959 0.768335
vt 0.090455 0.762182
vt 0.079212 0.762182
vt 0.079212 0.125740
vt 0.090455 0.125740
vt 0.015664 0.762182
vt 0.015665 0.125740
vt 0.165245 0.762182
vt 0.154003 0.762182
vt 0.154002 0.125740
vt 0.165245 0.125740
vt 0.079212 0.114497
vt 0.015665 0.114497
vt 0.015664 0.773425
vt 0.079212 0.773425
vt 0.392839 0.760005
vt 0.381959 0.760023
vt 0.378353 0.136641
vt 0.389234 0.136623
vt 0.328482 0.760023
vt 0.328483 0.136641
vt 0.457192 0.759305
vt 0.446312 0.759386
vt 0.439101 0.136046
vt 0.449981 0.135965
vt 0.378353 0.128329
vt 0.328483 0.128329
vt 0.328482 0.768335
vt 0.381959 0.768335
vn -1.0000 0.0000 0.0000
vn 0.0000 1.0000 -0.0000
vn 0.9998 0.0194 0.0000
vn 0.0000 0.0000 -1.0000
vn -0.0000 0.0000 1.0000
vn 0.0000 -1.0000 0.0000
vn 1.0000 0.0000 0.0000
vn 0.0000 1.0000 0.0056
vn 0.9998 -0.0217 -0.0001
vn -1.0000 0.0093 0.0000
vn -0.9999 0.0140 0.0000
vn -1.0000 0.0094 0.0000
vn 1.0000 0.0093 0.0000
vn 0.9999 0.0140 0.0000
vn 1.0000 0.0094 0.0000
vn 0.0000 -0.0103 -0.9999
vn 0.0000 -0.0105 -0.9999
vn -0.0000 -0.0053 1.0000
vn -0.0000 -0.0055 1.0000
vn -0.0000 0.0050 1.0000
vn 1.0000 0.0000 -0.0017
vn 1.0000 0.0001 -0.0017
vn -1.0000 0.0000 0.0017
vn -1.0000 0.0001 0.0017
vn 0.0017 -0.0260 0.9997
vn 0.0017 -0.0416 0.9991
vn -0.0017 -0.0260 -0.9997
vn -0.0017 -0.0416 -0.9991
vn -0.0017 0.0416 -0.9991
vn -0.0017 0.0260 -0.9997
vn -0.0017 0.0052 -1.0000
vn -0.0017 -0.0052 -1.0000
vn 0.0017 0.0416 0.9991
vn 0.0017 0.0260 0.9997
vn 0.0017 0.0052 1.0000
vn 0.0017 -0.0052 1.0000
vn -1.0000 -0.0001 0.0017
vn 1.0000 -0.0001 -0.0017
vn 0.0000 0.0155 0.9999
vn 0.0000 0.0153 0.9999
vn -0.0000 0.0154 0.9999
vn -0.0000 -0.0054 1.0000
vn 0.0000 0.0105 -0.9999
vn 0.0000 0.0103 -0.9999
vn 0.0000 0.0104 -0.9999
vn 0.0000 -0.0104 -0.9999
vn 0.9999 -0.0140 0.0000
vn 1.0000 -0.0093 0.0000
vn 1.0000 -0.0094 0.0000
vn 1.0000 -0.0023 0.0000
vn 1.0000 -0.0024 0.0000
vn 1.0000 0.0023 0.0000
vn 1.0000 0.0024 0.0000
vn -0.9999 -0.0140 0.0000
vn -1.0000 -0.0093 0.0000
vn -1.0000 -0.0094 0.0000
vn -1.0000 -0.0023 0.0000
vn -1.0000 -0.0024 0.0000
vn -1.0000 0.0023 0.0000
vn -1.0000 0.0024 0.0000
vn 0.0000 -0.9999 -0.0102
vn 0.0000 0.9999 0.0102
vn 0.0000 0.0102 -0.9999
vn 0.0000 -0.0102 0.9999
vn 0.0000 -0.9999 -0.0139
vn 0.0000 0.9999 0.0139
vn 0.9998 0.0190 0.0000
vn -0.9986 0.0000 -0.0531
vn -0.0003 1.0000 0.0055
vn 0.9986 0.0000 0.0531
vn 0.0531 0.0000 -0.9986
vn -0.0531 0.0000 0.9986
vn 0.9998 0.0199 0.0000
vn 0.0000 -1.0000 -0.0058
vn -0.0574 0.9984 0.0008
vn 0.9983 0.0574 -0.0137
vn 0.0574 -0.9984 -0.0008
vn -0.9983 -0.0574 0.0137
vn 0.0000 -1.0000 -0.0090
vn 0.0000 1.0000 0.0032
vn 0.0000 0.0025 -1.0000
vn 0.0000 -0.0026 1.0000
usemtl wood_fance_t1_m
s 1
f 8/1/1 1/2/1 11/3/1 4/4/1
f 1/5/2 14/6/2 10/7/2 11/8/2
f 14/6/3 9/9/3 5/10/3 10/7/3
f 5/11/4 4/4/4 11/3/4 10/12/4
f 14/13/5 1/2/5 8/1/5 9/14/5
f 6/15/6 7/16/6 3/17/6 2/18/6
f 7/16/1 8/19/1 4/20/1 3/17/1
f 9/21/7 6/15/7 2/18/7 5/22/7
f 2/23/4 3/17/4 4/20/4 5/24/4
f 9/25/5 8/19/5 7/16/5 6/26/5
f 1/27/1 15/28/1 12/29/1 11/30/1
f 15/31/8 16/32/8 13/33/8 12/34/8
f 16/32/9 14/35/9 10/36/9 13/33/9
f 10/37/4 11/30/4 12/29/4 13/38/4
f 16/39/5 15/28/5 1/27/5 14/40/5
f 21/41/6 22/42/6 18/43/6 17/44/6
f 52/45/10 23/46/11 19/47/11 53/48/12
f 23/49/2 24/50/2 20/51/2 19/52/2
f 60/53/13 21/54/14 17/55/14 61/56/15
f 64/57/16 53/58/17 19/59/4 20/60/4
f 60/53/18 49/61/19 22/62/20 21/54/20
f 29/63/6 30/64/6 26/65/6 25/66/6
f 36/67/21 31/68/22 27/69/22 37/70/21
f 31/71/2 32/72/2 28/73/2 27/74/2
f 44/75/23 29/76/24 25/77/24 45/78/23
f 48/79/25 37/80/25 27/81/26 28/82/26
f 44/75/27 33/83/27 30/84/28 29/76/28
f 32/85/29 31/68/29 36/67/30 41/86/30
f 41/86/30 36/67/30 35/87/31 42/88/31
f 42/88/31 35/87/31 34/89/32 43/90/32
f 43/90/32 34/89/32 33/83/27 44/75/27
f 25/77/33 26/91/33 40/92/34 45/78/34
f 45/78/34 40/92/34 39/93/35 46/94/35
f 46/94/35 39/93/35 38/95/36 47/96/36
f 47/96/36 38/95/36 37/80/25 48/79/25
f 32/85/37 41/86/23 48/79/23 28/82/37
f 41/86/23 42/88/23 47/96/23 48/79/23
f 42/88/23 43/90/23 46/94/23 47/96/23
f 43/90/23 44/75/23 45/78/23 46/94/23
f 30/84/38 33/83/21 40/97/21 26/98/38
f 33/83/21 34/89/21 39/99/21 40/97/21
f 34/89/21 35/87/21 38/100/21 39/99/21
f 35/87/21 36/67/21 37/70/21 38/100/21
f 24/101/20 23/46/20 52/45/39 57/102/40
f 57/102/40 52/45/39 51/103/41 58/104/41
f 58/104/41 51/103/41 50/105/42 59/106/42
f 59/106/42 50/105/42 49/61/19 60/53/18
f 17/55/4 18/107/4 56/108/43 61/56/44
f 61/56/44 56/108/43 55/109/45 62/110/45
f 62/110/45 55/109/45 54/111/46 63/112/46
f 63/112/46 54/111/46 53/58/17 64/57/16
f 24/101/47 57/102/48 64/57/49 20/60/47
f 57/102/48 58/104/50 63/112/51 64/57/49
f 58/104/50 59/106/52 62/110/53 63/112/51
f 59/106/52 60/53/13 61/56/15 62/110/53
f 22/62/54 49/61/55 56/113/56 18/114/54
f 49/61/55 50/105/57 55/115/58 56/113/56
f 50/105/57 51/103/59 54/116/60 55/115/58
f 51/103/59 52/45/10 53/48/12 54/116/60
f 69/117/61 70/118/61 66/119/61 65/120/61
f 70/118/1 71/121/1 67/122/1 66/119/1
f 71/123/62 72/124/62 68/125/62 67/126/62
f 72/124/7 69/117/7 65/120/7 68/125/7
f 65/127/63 66/128/63 67/129/63 68/130/63
f 72/131/64 71/132/64 70/133/64 69/134/64
f 77/135/65 78/136/65 74/137/65 73/138/65
f 78/136/1 79/139/1 75/140/1 74/137/1
f 79/141/66 80/142/66 76/143/66 75/144/66
f 80/142/7 77/135/7 73/138/7 76/143/7
f 73/145/4 74/137/4 75/140/4 76/146/4
f 80/147/5 79/139/5 78/136/5 77/148/5
f 91/149/1 83/150/1 81/151/1 87/152/1
f 83/153/2 84/154/2 82/155/2 81/156/2
f 84/154/67 92/157/67 88/158/67 82/155/67
f 88/159/4 87/152/4 81/151/4 82/160/4
f 84/161/5 83/150/5 91/149/5 92/162/5
f 89/163/6 90/164/6 86/165/6 85/166/6
f 90/164/1 91/167/1 87/168/1 86/165/1
f 92/169/7 89/163/7 85/166/7 88/170/7
f 85/171/4 86/165/4 87/168/4 88/172/4
f 92/173/5 91/167/5 90/164/5 89/174/5
f 97/175/6 98/176/6 94/177/6 93/178/6
f 98/176/68 99/179/68 95/180/68 94/177/68
f 99/181/69 100/182/69 96/183/69 95/184/69
f 100/182/70 97/175/70 93/178/70 96/183/70
f 93/185/71 94/177/71 95/180/71 96/186/71
f 100/187/72 99/179/72 98/176/72 97/188/72
f 105/189/6 106/190/6 102/191/6 101/192/6
f 106/190/1 107/193/1 103/194/1 102/191/1
f 108/195/7 105/189/7 101/192/7 104/196/7
f 101/197/4 102/191/4 103/194/4 104/198/4
f 108/199/5 107/193/5 106/190/5 105/200/5
f 114/201/1 115/202/1 111/203/1 110/204/1
f 116/205/73 113/206/73 109/207/73 112/208/73
f 109/209/4 110/204/4 111/203/4 112/210/4
f 116/211/5 115/202/5 114/201/5 113/212/5
f 121/213/6 122/214/6 118/215/6 117/216/6
f 122/214/1 123/217/1 119/218/1 118/215/1
f 123/219/2 124/220/2 120/221/2 119/222/2
f 124/220/7 121/213/7 117/216/7 120/221/7
f 117/223/4 118/215/4 119/218/4 120/224/4
f 124/225/5 123/217/5 122/214/5 121/226/5
f 129/227/74 130/228/74 126/229/74 125/230/74
f 130/228/1 131/231/1 127/232/1 126/229/1
f 131/233/2 132/234/2 128/235/2 127/236/2
f 132/234/7 129/227/7 125/230/7 128/235/7
f 125/237/4 126/229/4 127/232/4 128/238/4
f 132/239/5 131/231/5 130/228/5 129/240/5
f 137/241/75 138/242/75 134/243/75 133/244/75
f 138/242/76 139/245/76 135/246/76 134/243/76
f 139/247/77 140/248/77 136/249/77 135/250/77
f 140/248/78 137/241/78 133/244/78 136/249/78
f 133/251/4 134/243/4 135/246/4 136/252/4
f 140/253/5 139/245/5 138/242/5 137/254/5
f 145/255/79 146/256/79 142/257/79 141/258/79
f 146/256/1 147/259/1 143/260/1 142/257/1
f 147/261/80 148/262/80 144/263/80 143/264/80
f 148/262/7 145/255/7 141/258/7 144/263/7
f 141/265/81 142/257/81 143/260/81 144/266/81
f 148/267/82 147/259/82 146/256/82 145/268/82
